<mxfile host="app.diagrams.net" modified="2023-11-30T02:17:25.543Z" agent="Mozilla/5.0 (Macintosh; Intel Mac OS X 10_15_7) AppleWebKit/537.36 (KHTML, like Gecko) Chrome/118.0.0.0 Safari/537.36" version="22.1.5" etag="lpgVG8N07xXHLvQZicGq" type="github">
  <diagram name="Page-1" id="MxMccg3VLbxKYiMZEoNQ">
    <mxGraphModel>
      <root>
        <mxCell id="0" />
        <mxCell id="1" parent="0" />
      </root>
    </mxGraphModel>
  </diagram>
</mxfile>
